<svg width="382" height="382" viewBox="0 0 382 382" fill="none" xmlns="http://www.w3.org/2000/svg">
<g clip-path="url(#clip0)">
<path d="M381.625 112.309C380.73 92.0119 377.448 78.0578 372.746 65.9664C367.896 53.1317 360.433 41.6407 350.656 32.0883C341.104 22.3872 329.537 14.849 316.851 10.0742C304.69 5.37234 290.808 2.09005 270.511 1.19515C250.063 0.224455 243.571 0 191.707 0C139.844 0 133.352 0.224455 112.979 1.11936C92.6818 2.01426 78.7277 5.29947 66.6392 9.99844C53.8016 14.849 42.3107 22.3114 32.7582 32.0883C23.0571 41.6407 15.5218 53.2075 10.7442 65.8935C6.04226 78.0578 2.75998 91.9361 1.86507 112.233C0.894377 132.682 0.669922 139.174 0.669922 191.037C0.669922 242.901 0.894377 249.393 1.78928 269.766C2.68419 290.063 5.96939 304.017 10.6713 316.108C15.5218 328.943 23.0571 340.434 32.7582 349.986C42.3107 359.687 53.8774 367.226 66.5634 372C78.7277 376.702 92.606 379.985 112.906 380.879C133.276 381.777 139.771 381.999 191.634 381.999C243.498 381.999 249.99 381.777 270.363 380.879C290.66 379.985 304.614 376.702 316.702 372C342.375 362.075 362.672 341.778 372.597 316.108C377.296 303.944 380.582 290.063 381.476 269.766C382.371 249.393 382.596 242.901 382.596 191.037C382.596 139.174 382.52 132.682 381.625 112.309ZM347.225 268.273C346.403 286.929 343.27 297.003 340.658 303.719C334.239 320.361 321.031 333.569 304.389 339.988C297.673 342.6 287.526 345.733 268.943 346.552C248.795 347.45 242.752 347.672 191.783 347.672C140.814 347.672 134.696 347.45 114.62 346.552C95.9641 345.733 85.8899 342.6 79.1737 339.988C70.8922 336.927 63.354 332.077 57.2355 325.734C50.8924 319.539 46.0419 312.077 42.9811 303.795C40.3693 297.079 37.2357 286.929 36.4165 268.349C35.5187 248.2 35.2972 242.155 35.2972 191.186C35.2972 140.217 35.5187 134.099 36.4165 114.026C37.2357 95.37 40.3693 85.2958 42.9811 78.5796C46.0419 70.2952 50.8924 62.7599 57.3112 56.6384C63.5027 50.2954 70.9651 45.4448 79.2495 42.387C85.9657 39.7751 96.1157 36.6415 114.696 35.8195C134.844 34.9246 140.89 34.7001 191.856 34.7001C242.9 34.7001 248.943 34.9246 269.019 35.8195C287.675 36.6415 297.749 39.7751 304.465 42.387C312.747 45.4448 320.285 50.2954 326.403 56.6384C332.746 62.8328 337.597 70.2952 340.658 78.5796C343.27 85.2958 346.403 95.4429 347.225 114.026C348.12 134.174 348.345 140.217 348.345 191.186C348.345 242.155 348.12 248.125 347.225 268.273Z" fill="white"/>
<path d="M191.709 92.9069C137.533 92.9069 93.5781 136.859 93.5781 191.037C93.5781 245.215 137.533 289.168 191.709 289.168C245.887 289.168 289.839 245.215 289.839 191.037C289.839 136.859 245.887 92.9069 191.709 92.9069ZM191.709 254.692C156.562 254.692 128.054 226.186 128.054 191.037C128.054 155.888 156.562 127.383 191.709 127.383C226.858 127.383 255.363 155.888 255.363 191.037C255.363 226.186 226.858 254.692 191.709 254.692V254.692Z" fill="white"/>
<path d="M316.631 89.0269C316.631 101.678 306.374 111.936 293.72 111.936C281.068 111.936 270.811 101.678 270.811 89.0269C270.811 76.3729 281.068 66.1179 293.72 66.1179C306.374 66.1179 316.631 76.3729 316.631 89.0269V89.0269Z" fill="white"/>
</g>
<defs>
<clipPath id="clip0">
<rect width="382" height="382" fill="white"/>
</clipPath>
</defs>
</svg>
